# xmcd
#
# Track frame offsets:
#   150
#   12458
#   36049
#   54511
#   69969
#   85056
#   104551
#   122575
#   143747
#   161323
#   175493
#   198047
#   215697
#   231909
#   247646
#
# Disc length: 3557 seconds
#
# Revision: 0
# Processed by: cddbd v1.5.2PL0 Copyright (c) Steve Scherf et al.
# Submitted via: uFREEDB ActiveX Control 1.5
#
DISCID=c10de30f
DTITLE=Varios - PEROLAS NATIVAS VOL 1
DYEAR=2010
DGENRE=Country
TTITLE0=CENTAUROS FARROUPILHAS
TTITLE1=O FORASTEIRO
TTITLE2=CANTO DE CLA
TTITLE3=TRAZENDO AMOR PRA AS CORRENTES
TTITLE4=MAOS RURAIS
TTITLE5=CANTO DA AUSENCIA
TTITLE6=QUANDO O VERSO VEM PRAS CASA
TTITLE7=RUMOS CONVERGENTES
TTITLE8=DANCANDO UM BUGIU
TTITLE9=SOBRE O LOMBILHO
TTITLE10=MANHAS DE MAIO
TTITLE11=REMEMBRANCA
TTITLE12=CARCANDO A CORDA NO CUSCO
TTITLE13=TALVEZ
TTITLE14=MEMORIAS DO TEMPO
EXTD=
EXTT0=
EXTT1=
EXTT2=
EXTT3=
EXTT4=
EXTT5=
EXTT6=
EXTT7=
EXTT8=
EXTT9=
EXTT10=
EXTT11=
EXTT12=
EXTT13=
EXTT14=
PLAYORDER=
